# xmcd CD database file
#
# Track frame offsets:
#	150
#	10885
#	21888
#	32497
#	47062
#	57262
#	70672
#	84677
#	97477
#	109685
#	125187
#	142027
#	154115
#	166425
#	181452
#	196359
#	211567
#	224765
#	238030
#	253006
#
# Disc length: 3540 seconds
#
# Revision: 1
# Processed by: cddbd v1.5.2PL0 Copyright (c) Steve Scherf et al.
# Submitted via: CDex 1.70beta2
#
DISCID=290dd214
DTITLE=Various Artist - Somebody Loves Me CD 2
DYEAR=2005
DGENRE=Jazz
TTITLE0=Dean Martin - Memories Are Made Of This
TTITLE1=Dean Martin - Buona Sera
TTITLE2=Sammy Davis, Jr. - Mentrion A Mansion
TTITLE3=Sammy Davis, Jr. - You're Gonna Love Yourself
TTITLE4=Frank Sinatra - Chicago That Toddling Town
TTITLE5=Frank Sinatra - You Make Me Feel So Young
TTITLE6=Dean Martin - Rio Bravo
TTITLE7=Dean Martin - Return To Me
TTITLE8=Sammy Davis, Jr. - The Rivers's Too Wide
TTITLE9=Sammy Davis, Jr. - Please Don't Tell Me How The Story Ends
TTITLE10=Frank Sinatra - I've Got You Under My Skin
TTITLE11=Frank Sinatra - All Or Nothing At All
TTITLE12=Dean Martin - Hey Brother Pour The Wine
TTITLE13=Dean Martin - Come Back To Sorrento
TTITLE14=Sammy Davis, Jr. and Carmen McRae - People Will Say We're In Love
TTITLE15=Sammy Davis, Jr. - Hey Won't You Play
TTITLE16=Frank Sinatra - Witchcraft
TTITLE17=Frank Sinatra - Blue Moon
TTITLE18=Frank Sinatra and Dinah Shore - My Romance
TTITLE19=Dean Martin and Peggy Lee - You Was
EXTD=YEAR: 2005
EXTT0=
EXTT1=
EXTT2=
EXTT3=
EXTT4=
EXTT5=
EXTT6=
EXTT7=
EXTT8=
EXTT9=
EXTT10=
EXTT11=
EXTT12=
EXTT13=
EXTT14=
EXTT15=
EXTT16=
EXTT17=
EXTT18=
EXTT19=
PLAYORDER=
